<?xml version="1.0" encoding="utf-8"?>
<!-- Generator: Adobe Illustrator 22.0.1, SVG Export Plug-In . SVG Version: 6.00 Build 0)  -->
<svg version="1.1" xmlns="http://www.w3.org/2000/svg" xmlns:xlink="http://www.w3.org/1999/xlink" x="0px" y="0px"
	 viewBox="0 0 2000 873" style="enable-background:new 0 0 2000 873;" xml:space="preserve">
<style type="text/css">
	.st0{fill:#94D6FF;}
	.st1{opacity:0.32;fill:#F8F3F8;}
	.st2{opacity:0.41;fill:#FFFFFF;}
</style>
<g id="Layer_1">
	<rect y="-2.7" class="st0" width="1997.8" height="875.7"/>
	<path class="st1" d="M0,609c0,0,132,68.8,237,72c195,6,399-69,552.1-69c240,0,396.1,80,615.1,75c264-6,498-105,675.1-105
		c204,0,276,63,276,63v228H0C0,873,3,609,0,609z"/>
	<path class="st2" d="M2355.2,609c0,0-132,68.8-237,72c-195,6-399-69-552.1-69c-240,0-396.1,80-615.1,75c-264-6-498-105-675.1-105
		C72,582,0,645,0,645l0,228h2355.2C2355.2,873,2352.2,609,2355.2,609z"/>
</g>
<g id="Layer_2">
</g>
</svg>
